<mxfile host="app.diagrams.net" agent="Mozilla/5.0 (Windows NT 10.0; Win64; x64) AppleWebKit/537.36 (KHTML, like Gecko) Chrome/127.0.0.0 Safari/537.36" version="24.7.7">
  <diagram name="Page-1" id="xib4ll6MqNEGMkLtawWs">
    <mxGraphModel dx="1434" dy="746" grid="1" gridSize="10" guides="1" tooltips="1" connect="1" arrows="1" fold="1" page="1" pageScale="1" pageWidth="850" pageHeight="1100" math="0" shadow="0">
      <root>
        <mxCell id="0" />
        <mxCell id="1" parent="0" />
        <mxCell id="LgtDcTE0tOLvFDN62s_C-1" value="&lt;font style=&quot;font-size: 22px;&quot;&gt;Example&#39;s Hierarchy&lt;/font&gt;" style="text;html=1;align=center;verticalAlign=middle;whiteSpace=wrap;rounded=0;" vertex="1" parent="1">
          <mxGeometry x="300" y="60" width="270" height="30" as="geometry" />
        </mxCell>
        <mxCell id="LgtDcTE0tOLvFDN62s_C-5" style="edgeStyle=orthogonalEdgeStyle;rounded=0;orthogonalLoop=1;jettySize=auto;html=1;exitX=0.5;exitY=1;exitDx=0;exitDy=0;" edge="1" parent="1" source="LgtDcTE0tOLvFDN62s_C-2" target="LgtDcTE0tOLvFDN62s_C-4">
          <mxGeometry relative="1" as="geometry" />
        </mxCell>
        <mxCell id="LgtDcTE0tOLvFDN62s_C-6" style="edgeStyle=orthogonalEdgeStyle;rounded=0;orthogonalLoop=1;jettySize=auto;html=1;exitX=0.5;exitY=1;exitDx=0;exitDy=0;" edge="1" parent="1" source="LgtDcTE0tOLvFDN62s_C-2" target="LgtDcTE0tOLvFDN62s_C-3">
          <mxGeometry relative="1" as="geometry" />
        </mxCell>
        <mxCell id="LgtDcTE0tOLvFDN62s_C-2" value="Name: App Coordinator&lt;br&gt;Type:&amp;nbsp;RootCoordinator" style="rounded=0;whiteSpace=wrap;html=1;fillColor=#dae8fc;strokeColor=#6c8ebf;" vertex="1" parent="1">
          <mxGeometry x="360" y="150" width="130" height="60" as="geometry" />
        </mxCell>
        <mxCell id="LgtDcTE0tOLvFDN62s_C-14" style="edgeStyle=orthogonalEdgeStyle;rounded=0;orthogonalLoop=1;jettySize=auto;html=1;exitX=0.5;exitY=1;exitDx=0;exitDy=0;entryX=0.5;entryY=0;entryDx=0;entryDy=0;" edge="1" parent="1" source="LgtDcTE0tOLvFDN62s_C-3" target="LgtDcTE0tOLvFDN62s_C-8">
          <mxGeometry relative="1" as="geometry" />
        </mxCell>
        <mxCell id="LgtDcTE0tOLvFDN62s_C-15" style="edgeStyle=orthogonalEdgeStyle;rounded=0;orthogonalLoop=1;jettySize=auto;html=1;exitX=0.5;exitY=1;exitDx=0;exitDy=0;entryX=0.5;entryY=0;entryDx=0;entryDy=0;" edge="1" parent="1" source="LgtDcTE0tOLvFDN62s_C-3" target="LgtDcTE0tOLvFDN62s_C-7">
          <mxGeometry relative="1" as="geometry" />
        </mxCell>
        <mxCell id="LgtDcTE0tOLvFDN62s_C-3" value="Name: Main Coordinator&lt;br&gt;Type:&amp;nbsp;HostCoordinator" style="rounded=0;whiteSpace=wrap;html=1;fillColor=#dae8fc;strokeColor=#6c8ebf;" vertex="1" parent="1">
          <mxGeometry x="540" y="280" width="140" height="60" as="geometry" />
        </mxCell>
        <mxCell id="LgtDcTE0tOLvFDN62s_C-11" style="edgeStyle=orthogonalEdgeStyle;rounded=0;orthogonalLoop=1;jettySize=auto;html=1;exitX=0.5;exitY=1;exitDx=0;exitDy=0;entryX=0.5;entryY=0;entryDx=0;entryDy=0;" edge="1" parent="1" source="LgtDcTE0tOLvFDN62s_C-4" target="LgtDcTE0tOLvFDN62s_C-9">
          <mxGeometry relative="1" as="geometry" />
        </mxCell>
        <mxCell id="LgtDcTE0tOLvFDN62s_C-13" style="edgeStyle=orthogonalEdgeStyle;rounded=0;orthogonalLoop=1;jettySize=auto;html=1;exitX=0.5;exitY=1;exitDx=0;exitDy=0;entryX=0.5;entryY=0;entryDx=0;entryDy=0;" edge="1" parent="1" source="LgtDcTE0tOLvFDN62s_C-4" target="LgtDcTE0tOLvFDN62s_C-10">
          <mxGeometry relative="1" as="geometry" />
        </mxCell>
        <mxCell id="LgtDcTE0tOLvFDN62s_C-4" value="Name: Auth Coordinator&lt;br&gt;Type: Coordinator" style="rounded=0;whiteSpace=wrap;html=1;fillColor=#dae8fc;strokeColor=#6c8ebf;" vertex="1" parent="1">
          <mxGeometry x="190" y="280" width="140" height="60" as="geometry" />
        </mxCell>
        <mxCell id="LgtDcTE0tOLvFDN62s_C-18" style="edgeStyle=orthogonalEdgeStyle;rounded=0;orthogonalLoop=1;jettySize=auto;html=1;exitX=0.5;exitY=1;exitDx=0;exitDy=0;" edge="1" parent="1" source="LgtDcTE0tOLvFDN62s_C-7" target="LgtDcTE0tOLvFDN62s_C-17">
          <mxGeometry relative="1" as="geometry" />
        </mxCell>
        <mxCell id="LgtDcTE0tOLvFDN62s_C-19" style="edgeStyle=orthogonalEdgeStyle;rounded=0;orthogonalLoop=1;jettySize=auto;html=1;exitX=0.5;exitY=1;exitDx=0;exitDy=0;" edge="1" parent="1" source="LgtDcTE0tOLvFDN62s_C-7" target="LgtDcTE0tOLvFDN62s_C-16">
          <mxGeometry relative="1" as="geometry" />
        </mxCell>
        <mxCell id="LgtDcTE0tOLvFDN62s_C-7" value="Name: Orders Coordinator&lt;br&gt;Type: Coordinator" style="rounded=0;whiteSpace=wrap;html=1;fillColor=#dae8fc;strokeColor=#6c8ebf;" vertex="1" parent="1">
          <mxGeometry x="620" y="410" width="150" height="60" as="geometry" />
        </mxCell>
        <mxCell id="LgtDcTE0tOLvFDN62s_C-8" value="Main Screen" style="rounded=0;whiteSpace=wrap;html=1;fillColor=#d5e8d4;strokeColor=#82b366;" vertex="1" parent="1">
          <mxGeometry x="460" y="410" width="120" height="60" as="geometry" />
        </mxCell>
        <mxCell id="LgtDcTE0tOLvFDN62s_C-9" value="Login Screen" style="rounded=0;whiteSpace=wrap;html=1;fillColor=#d5e8d4;strokeColor=#82b366;" vertex="1" parent="1">
          <mxGeometry x="120" y="410" width="120" height="60" as="geometry" />
        </mxCell>
        <mxCell id="LgtDcTE0tOLvFDN62s_C-10" value="Settings Screen" style="rounded=0;whiteSpace=wrap;html=1;fillColor=#d5e8d4;strokeColor=#82b366;" vertex="1" parent="1">
          <mxGeometry x="280" y="410" width="120" height="60" as="geometry" />
        </mxCell>
        <mxCell id="LgtDcTE0tOLvFDN62s_C-16" value="Orders Details Screen" style="rounded=0;whiteSpace=wrap;html=1;fillColor=#d5e8d4;strokeColor=#82b366;" vertex="1" parent="1">
          <mxGeometry x="710" y="540" width="120" height="60" as="geometry" />
        </mxCell>
        <mxCell id="LgtDcTE0tOLvFDN62s_C-17" value="Orders List Screen" style="rounded=0;whiteSpace=wrap;html=1;fillColor=#d5e8d4;strokeColor=#82b366;" vertex="1" parent="1">
          <mxGeometry x="540" y="540" width="120" height="60" as="geometry" />
        </mxCell>
      </root>
    </mxGraphModel>
  </diagram>
</mxfile>
